<?xml version="1.0" encoding="UTF-8" standalone="no" ?>
<!DOCTYPE svg PUBLIC "-//W3C//DTD SVG 1.1//EN" "http://www.w3.org/Graphics/SVG/1.1/DTD/svg11.dtd">
<svg xmlns="http://www.w3.org/2000/svg" xmlns:xlink="http://www.w3.org/1999/xlink" version="1.1" width="150" height="150" viewBox="0 0 150 150" xml:space="preserve">
<desc>Created with Fabric.js 5.2.4</desc>
<defs>
</defs>
<g transform="matrix(1 0 0 1 75 75)" id="bf88f5d8-f4d1-4f78-9199-11551a56a387"  >
<rect style="stroke: none; stroke-width: 1; stroke-dasharray: none; stroke-linecap: butt; stroke-dashoffset: 0; stroke-linejoin: miter; stroke-miterlimit: 4; fill: rgb(255,255,255); fill-rule: nonzero; opacity: 1; visibility: hidden;" vector-effect="non-scaling-stroke"  x="-75" y="-75" rx="0" ry="0" width="150" height="150" />
</g>
<g transform="matrix(Infinity NaN NaN Infinity 0 0)" id="c5aea727-7e24-4980-a01d-40908eb3a0d9"  >
</g>
<g transform="matrix(1 0 0 1 75 75)"  >
<g style=""   >
		<g transform="matrix(1 0 0 1 0 0)"  >
<rect style="stroke: none; stroke-width: 1; stroke-dasharray: none; stroke-linecap: butt; stroke-dashoffset: 0; stroke-linejoin: miter; stroke-miterlimit: 4; fill: rgb(255,56,56); fill-rule: nonzero; opacity: 1;" vector-effect="non-scaling-stroke"  x="-75" y="-75" rx="37.288" ry="37.288" width="150" height="150" />
</g>
		<g transform="matrix(6.25 0 0 6.25 -0.28 -6.33)"  >
<path style="stroke: none; stroke-width: 1; stroke-dasharray: none; stroke-linecap: butt; stroke-dashoffset: 0; stroke-linejoin: miter; stroke-miterlimit: 4; fill: rgb(255,255,255); fill-rule: nonzero; opacity: 1;" vector-effect="non-scaling-stroke"  transform=" translate(2.75, -2.36)" d="M 1.788 10.604 L 3.033 10.604 C 3.662 10.604 4.18 10.117 4.255 9.502 L 5.491 -2.852 L 1.743 -2.852 L 1.743 -5.887 L 0.267 -5.887 L 0.267 -2.852 L -3.459 -2.852 L -3.234 -1.097 C -1.952 -0.745 -0.753 -0.108 -0.033 0.597 C 1.046 1.661 1.788 2.763 1.788 4.562 L 1.788 10.604 M -11 9.854 L -11 9.105 L 0.267 9.105 L 0.267 9.854 C 0.267 10.259 -0.071 10.604 -0.505 10.604 L -10.25 10.604 C -10.663 10.604 -11 10.259 -11 9.854 M 0.267 4.607 C 0.267 -1.39 -11 -1.39 -11 4.607 L 0.267 4.607 M -11 6.106 L 0.244 6.106 L 0.244 7.606 L -11 7.606 L -11 6.106 Z" stroke-linecap="round" />
</g>
</g>
</g>
</svg>